<svg width="357" height="86" viewBox="0 0 357 86" fill="none" xmlns="http://www.w3.org/2000/svg">
<path d="M0 5C0 2.23858 2.23858 0 5 0H307C334.614 0 357 22.3858 357 50V81C357 83.7614 354.761 86 352 86H5C2.23858 86 0 83.7614 0 81V5Z" fill="#FEE9D4"/>
<path d="M27.992 20.912C27.992 20.912 28.128 20.896 28.4 20.864C28.672 20.832 28.992 20.872 29.36 20.984C29.744 21.096 30.072 21.368 30.344 21.8C30.52 22.072 30.696 22.4 30.872 22.784C31.064 23.152 31.232 23.52 31.376 23.888C31.536 24.256 31.664 24.56 31.76 24.8C31.856 25.04 31.904 25.16 31.904 25.16L33.344 21.656C33.344 21.656 33.4 21.584 33.512 21.44C33.64 21.296 33.84 21.16 34.112 21.032C34.4 20.904 34.792 20.856 35.288 20.888C36.744 20.984 37.28 21.44 36.896 22.256C36.816 22.416 36.672 22.712 36.464 23.144C36.256 23.56 36.016 24.032 35.744 24.56C35.488 25.072 35.232 25.576 34.976 26.072C34.736 26.568 34.536 26.976 34.376 27.296C34.216 27.616 34.136 27.776 34.136 27.776L34.256 33.632C34.256 33.632 34.256 33.704 34.256 33.848C34.272 33.976 34.24 34.136 34.16 34.328C34.08 34.504 33.912 34.664 33.656 34.808C33.4 34.936 33.008 35 32.48 35C31.776 35 31.256 34.904 30.92 34.712C30.6 34.52 30.4 34.312 30.32 34.088C30.24 33.848 30.2 33.672 30.2 33.56C30.2 33.496 30.192 33.256 30.176 32.84C30.176 32.424 30.176 31.936 30.176 31.376C30.176 30.816 30.168 30.256 30.152 29.696C30.152 29.136 30.144 28.672 30.128 28.304C30.128 27.936 30.128 27.752 30.128 27.752L26.936 22.664C26.936 22.664 26.888 22.592 26.792 22.448C26.696 22.304 26.632 22.136 26.6 21.944C26.584 21.736 26.672 21.536 26.864 21.344C27.056 21.152 27.432 21.008 27.992 20.912ZM43.6507 25.256C44.2427 25.208 44.6987 25.272 45.0187 25.448C45.3387 25.624 45.5307 25.728 45.5947 25.76C45.7547 25.84 45.8987 25.928 46.0267 26.024C46.1707 26.12 46.2427 26.168 46.2427 26.168C46.2427 26.168 46.3627 26.208 46.6027 26.288C46.8427 26.368 47.1227 26.56 47.4427 26.864C47.7627 27.152 48.0587 27.608 48.3307 28.232C48.6027 28.856 48.7627 29.704 48.8107 30.776C48.8427 31.496 48.7307 32.104 48.4747 32.6C48.2187 33.08 47.8747 33.48 47.4427 33.8C47.0267 34.104 46.5707 34.344 46.0747 34.52C45.5947 34.68 45.1307 34.792 44.6827 34.856C44.2507 34.92 43.8907 34.96 43.6027 34.976C43.3307 34.992 43.1947 35 43.1947 35C43.1947 35 43.0347 35 42.7147 35C42.4107 35 42.0267 34.952 41.5627 34.856C41.0987 34.744 40.6347 34.536 40.1707 34.232C39.7227 33.912 39.3467 33.448 39.0427 32.84C38.7547 32.232 38.6267 31.424 38.6587 30.416C38.6907 29.408 38.8747 28.584 39.2107 27.944C39.5627 27.288 39.9787 26.776 40.4587 26.408C40.9547 26.04 41.4427 25.776 41.9227 25.616C42.4187 25.456 42.8267 25.36 43.1467 25.328C43.4827 25.28 43.6507 25.256 43.6507 25.256ZM43.7467 27.608C43.7467 27.608 43.6427 27.736 43.4347 27.992C43.2427 28.248 43.0427 28.608 42.8347 29.072C42.6427 29.536 42.5467 30.08 42.5467 30.704C42.5467 31.312 42.6187 31.792 42.7627 32.144C42.9067 32.496 43.0587 32.752 43.2187 32.912C43.3947 33.056 43.5307 33.128 43.6267 33.128C43.7227 33.128 43.8747 33.088 44.0827 33.008C44.3067 32.912 44.5067 32.704 44.6827 32.384C44.8587 32.064 44.9387 31.56 44.9227 30.872C44.9067 30.296 44.8427 29.832 44.7307 29.48C44.6347 29.128 44.4987 28.816 44.3227 28.544C44.1627 28.256 43.9707 27.944 43.7467 27.608ZM50.1995 26.696C50.1995 26.696 50.1995 26.624 50.1995 26.48C50.2155 26.336 50.2715 26.176 50.3675 26C50.4635 25.808 50.6395 25.64 50.8955 25.496C51.1675 25.352 51.5515 25.28 52.0475 25.28C52.6555 25.28 53.0875 25.368 53.3435 25.544C53.6155 25.704 53.7755 25.904 53.8235 26.144C53.8875 26.368 53.9035 26.592 53.8715 26.816C53.8395 27.024 53.8235 27.168 53.8235 27.248C53.8235 27.312 53.8235 27.552 53.8235 27.968C53.8395 28.368 53.8715 28.848 53.9195 29.408C53.9675 29.968 54.0475 30.52 54.1595 31.064C54.2715 31.608 54.4315 32.064 54.6395 32.432C54.8475 32.784 55.1195 32.952 55.4555 32.936C55.7915 32.92 56.0155 32.744 56.1275 32.408C56.2395 32.072 56.2795 31.656 56.2475 31.16C56.2315 30.664 56.1755 30.168 56.0795 29.672C55.9835 29.176 55.8875 28.752 55.7915 28.4C55.6955 28.032 55.6475 27.824 55.6475 27.776C55.6475 27.712 55.6235 27.6 55.5755 27.44C55.5435 27.264 55.5435 27.072 55.5755 26.864C55.6235 26.656 55.7595 26.464 55.9835 26.288C56.2075 26.112 56.5755 26 57.0875 25.952C57.5995 25.904 57.9995 25.936 58.2875 26.048C58.5915 26.144 58.8075 26.272 58.9355 26.432C59.0795 26.592 59.1675 26.744 59.1995 26.888C59.2315 27.016 59.2475 27.08 59.2475 27.08C59.2475 27.08 59.3035 27.272 59.4155 27.656C59.5275 28.04 59.6315 28.536 59.7275 29.144C59.8235 29.736 59.8555 30.368 59.8235 31.04C59.8075 31.712 59.6635 32.352 59.3915 32.96C59.1355 33.552 58.7035 34.04 58.0955 34.424C57.5035 34.808 56.6715 35 55.5995 35C54.5275 35 53.6475 34.8 52.9595 34.4C52.2715 34 51.7275 33.488 51.3275 32.864C50.9435 32.224 50.6635 31.552 50.4875 30.848C50.3115 30.144 50.2075 29.48 50.1755 28.856C50.1435 28.216 50.1355 27.696 50.1515 27.296C50.1835 26.896 50.1995 26.696 50.1995 26.696ZM62.375 33.368C62.375 33.192 62.351 32.888 62.303 32.456C62.255 32.024 62.191 31.536 62.111 30.992C62.047 30.432 61.975 29.88 61.895 29.336C61.815 28.776 61.727 28.28 61.631 27.848C61.551 27.4 61.479 27.08 61.415 26.888C61.255 26.408 61.343 26.072 61.679 25.88C62.031 25.672 62.519 25.536 63.143 25.472C63.767 25.408 64.215 25.456 64.487 25.616C64.775 25.76 64.919 25.832 64.919 25.832C65.159 25.592 65.551 25.424 66.095 25.328C66.655 25.232 67.239 25.192 67.847 25.208C68.631 25.224 69.199 25.344 69.551 25.568C69.903 25.792 70.079 26.032 70.079 26.288C70.079 26.48 70.055 26.624 70.007 26.72C69.959 26.816 69.767 26.912 69.431 27.008C69.111 27.088 68.527 27.232 67.679 27.44C67.183 27.552 66.815 27.824 66.575 28.256C66.335 28.672 66.183 29.16 66.119 29.72C66.071 30.264 66.071 30.808 66.119 31.352C66.167 31.88 66.223 32.328 66.287 32.696C66.351 33.048 66.383 33.24 66.383 33.272C66.383 33.304 66.391 33.416 66.407 33.608C66.439 33.784 66.415 33.984 66.335 34.208C66.271 34.416 66.103 34.6 65.831 34.76C65.559 34.92 65.127 35 64.535 35C63.943 35 63.495 34.92 63.191 34.76C62.887 34.584 62.679 34.392 62.567 34.184C62.455 33.976 62.391 33.792 62.375 33.632C62.375 33.456 62.375 33.368 62.375 33.368ZM83.5903 31.16C82.3903 31.128 81.4543 31.008 80.7823 30.8C80.1103 30.592 79.6303 30.344 79.3423 30.056C79.0703 29.768 78.9023 29.488 78.8383 29.216C78.7743 28.928 78.7423 28.704 78.7423 28.544C78.7423 28.384 78.7663 28.136 78.8143 27.8C78.8623 27.464 79.0143 27.112 79.2703 26.744C79.5263 26.376 79.9663 26.056 80.5903 25.784C81.2303 25.512 82.1343 25.36 83.3023 25.328C84.5823 25.296 85.5663 25.368 86.2543 25.544C86.9423 25.72 87.4303 25.928 87.7183 26.168C88.0223 26.408 88.2063 26.624 88.2703 26.816C88.3343 26.992 88.3663 27.08 88.3663 27.08C88.3663 27.288 88.3423 27.504 88.2943 27.728C88.2463 27.936 88.1023 28.112 87.8623 28.256C87.6383 28.384 87.2463 28.44 86.6863 28.424C86.2383 28.408 85.9023 28.368 85.6783 28.304C85.4543 28.24 85.2863 28.168 85.1743 28.088C85.0783 27.992 84.9743 27.896 84.8623 27.8C84.7663 27.704 84.6143 27.624 84.4063 27.56C84.2143 27.496 83.9023 27.456 83.4703 27.44C82.9423 27.424 82.5423 27.464 82.2703 27.56C82.0143 27.64 81.8383 27.744 81.7423 27.872C81.6623 28 81.6143 28.112 81.5983 28.208C81.5983 28.288 81.5983 28.328 81.5983 28.328C81.5983 28.328 81.6143 28.392 81.6463 28.52C81.6943 28.648 81.8543 28.776 82.1263 28.904C82.4143 29.032 82.9263 29.104 83.6623 29.12C85.0543 29.168 86.1183 29.304 86.8543 29.528C87.6063 29.736 88.1343 29.984 88.4383 30.272C88.7583 30.56 88.9423 30.848 88.9903 31.136C89.0543 31.408 89.0863 31.624 89.0863 31.784C89.0863 31.944 89.0303 32.192 88.9183 32.528C88.8223 32.864 88.6063 33.216 88.2703 33.584C87.9343 33.952 87.4143 34.272 86.7103 34.544C86.0223 34.816 85.0943 34.968 83.9263 35C82.6623 35.032 81.6783 34.96 80.9743 34.784C80.2863 34.608 79.7903 34.4 79.4863 34.16C79.1983 33.92 79.0223 33.712 78.9583 33.536C78.8943 33.344 78.8623 33.248 78.8623 33.248C78.8623 33.024 78.8863 32.808 78.9343 32.6C78.9983 32.392 79.1423 32.224 79.3663 32.096C79.6063 31.952 79.9983 31.888 80.5423 31.904C81.0063 31.92 81.3423 31.96 81.5503 32.024C81.7743 32.088 81.9423 32.168 82.0543 32.264C82.1663 32.344 82.2703 32.432 82.3663 32.528C82.4623 32.624 82.6143 32.704 82.8223 32.768C83.0303 32.832 83.3423 32.872 83.7583 32.888C84.2863 32.904 84.6783 32.872 84.9343 32.792C85.2063 32.696 85.3903 32.584 85.4863 32.456C85.5823 32.328 85.6303 32.224 85.6303 32.144C85.6303 32.048 85.6303 32 85.6303 32C85.6303 32 85.6143 31.936 85.5823 31.808C85.5503 31.664 85.3903 31.528 85.1023 31.4C84.8303 31.256 84.3263 31.176 83.5903 31.16ZM90.6273 26.696C90.6273 26.696 90.6273 26.624 90.6273 26.48C90.6433 26.336 90.6993 26.176 90.7953 26C90.8913 25.808 91.0673 25.64 91.3233 25.496C91.5953 25.352 91.9793 25.28 92.4753 25.28C93.0833 25.28 93.5153 25.368 93.7713 25.544C94.0433 25.704 94.2033 25.904 94.2513 26.144C94.3153 26.368 94.3313 26.592 94.2993 26.816C94.2673 27.024 94.2513 27.168 94.2513 27.248C94.2513 27.312 94.2513 27.552 94.2513 27.968C94.2673 28.368 94.2993 28.848 94.3473 29.408C94.3953 29.968 94.4753 30.52 94.5873 31.064C94.6993 31.608 94.8593 32.064 95.0673 32.432C95.2753 32.784 95.5473 32.952 95.8833 32.936C96.2193 32.92 96.4433 32.744 96.5553 32.408C96.6673 32.072 96.7073 31.656 96.6753 31.16C96.6593 30.664 96.6033 30.168 96.5073 29.672C96.4113 29.176 96.3153 28.752 96.2193 28.4C96.1233 28.032 96.0753 27.824 96.0753 27.776C96.0753 27.712 96.0513 27.6 96.0033 27.44C95.9713 27.264 95.9713 27.072 96.0033 26.864C96.0513 26.656 96.1873 26.464 96.4113 26.288C96.6353 26.112 97.0033 26 97.5153 25.952C98.0273 25.904 98.4273 25.936 98.7153 26.048C99.0193 26.144 99.2353 26.272 99.3633 26.432C99.5073 26.592 99.5953 26.744 99.6273 26.888C99.6593 27.016 99.6753 27.08 99.6753 27.08C99.6753 27.08 99.7313 27.272 99.8433 27.656C99.9553 28.04 100.059 28.536 100.155 29.144C100.251 29.736 100.283 30.368 100.251 31.04C100.235 31.712 100.091 32.352 99.8193 32.96C99.5633 33.552 99.1313 34.04 98.5233 34.424C97.9313 34.808 97.0993 35 96.0273 35C94.9553 35 94.0753 34.8 93.3873 34.4C92.6993 34 92.1553 33.488 91.7553 32.864C91.3713 32.224 91.0913 31.552 90.9153 30.848C90.7393 30.144 90.6353 29.48 90.6033 28.856C90.5713 28.216 90.5633 27.696 90.5793 27.296C90.6113 26.896 90.6273 26.696 90.6273 26.696ZM102.803 33.368C102.803 33.192 102.779 32.888 102.731 32.456C102.683 32.024 102.619 31.536 102.539 30.992C102.475 30.432 102.403 29.88 102.323 29.336C102.243 28.776 102.155 28.28 102.059 27.848C101.979 27.4 101.907 27.08 101.843 26.888C101.683 26.408 101.771 26.072 102.107 25.88C102.459 25.672 102.947 25.536 103.571 25.472C104.195 25.408 104.643 25.456 104.915 25.616C105.203 25.76 105.347 25.832 105.347 25.832C105.587 25.592 105.979 25.424 106.523 25.328C107.083 25.232 107.667 25.192 108.275 25.208C109.059 25.224 109.627 25.344 109.979 25.568C110.331 25.792 110.507 26.032 110.507 26.288C110.507 26.48 110.483 26.624 110.435 26.72C110.387 26.816 110.195 26.912 109.859 27.008C109.539 27.088 108.955 27.232 108.107 27.44C107.611 27.552 107.243 27.824 107.003 28.256C106.763 28.672 106.611 29.16 106.547 29.72C106.499 30.264 106.499 30.808 106.547 31.352C106.595 31.88 106.651 32.328 106.715 32.696C106.779 33.048 106.811 33.24 106.811 33.272C106.811 33.304 106.819 33.416 106.835 33.608C106.867 33.784 106.843 33.984 106.763 34.208C106.699 34.416 106.531 34.6 106.259 34.76C105.987 34.92 105.555 35 104.963 35C104.371 35 103.923 34.92 103.619 34.76C103.315 34.584 103.107 34.392 102.995 34.184C102.883 33.976 102.819 33.792 102.803 33.632C102.803 33.456 102.803 33.368 102.803 33.368ZM114.376 33.416C114.152 32.744 113.92 32.056 113.68 31.352C113.44 30.632 113.208 29.952 112.984 29.312C112.776 28.656 112.592 28.088 112.432 27.608C112.272 27.128 112.16 26.792 112.096 26.6C111.968 26.2 112.04 25.864 112.312 25.592C112.584 25.32 113.112 25.184 113.896 25.184C114.424 25.184 114.816 25.264 115.072 25.424C115.328 25.568 115.488 25.72 115.552 25.88C115.632 26.024 115.672 26.096 115.672 26.096L116.68 30.224L116.848 31.616L117.232 29.672C117.232 29.672 117.272 29.56 117.352 29.336C117.432 29.096 117.536 28.808 117.664 28.472C117.792 28.12 117.92 27.768 118.048 27.416C118.176 27.048 118.288 26.736 118.384 26.48C118.576 25.968 118.832 25.632 119.152 25.472C119.488 25.296 120.072 25.224 120.904 25.256C121.32 25.272 121.624 25.352 121.816 25.496C122.008 25.624 122.12 25.776 122.152 25.952C122.2 26.112 122.208 26.256 122.176 26.384C122.16 26.512 122.152 26.576 122.152 26.576L118.768 33.776C118.768 33.776 118.704 33.88 118.576 34.088C118.448 34.28 118.232 34.48 117.928 34.688C117.64 34.896 117.224 35 116.68 35C116.232 35 115.856 34.92 115.552 34.76C115.264 34.6 115.032 34.416 114.856 34.208C114.68 34 114.552 33.816 114.472 33.656C114.408 33.496 114.376 33.416 114.376 33.416ZM133.52 27.752C133.472 28.552 133.248 29.2 132.848 29.696C132.448 30.176 131.96 30.544 131.384 30.8C130.824 31.04 130.264 31.208 129.704 31.304C129.144 31.384 128.672 31.424 128.288 31.424C127.92 31.424 127.736 31.424 127.736 31.424C127.832 31.984 127.968 32.384 128.144 32.624C128.32 32.864 128.512 33 128.72 33.032C128.944 33.064 129.152 33.048 129.344 32.984C129.536 32.904 129.688 32.816 129.8 32.72C129.928 32.624 129.992 32.576 129.992 32.576C129.992 32.576 130.08 32.504 130.256 32.36C130.432 32.216 130.704 32.08 131.072 31.952C131.456 31.808 131.936 31.736 132.512 31.736C133.168 31.736 133.608 31.824 133.832 32C134.072 32.16 134.184 32.352 134.168 32.576C134.168 32.784 134.12 32.976 134.024 33.152C133.944 33.312 133.904 33.392 133.904 33.392C133.904 33.392 133.832 33.472 133.688 33.632C133.56 33.776 133.32 33.952 132.968 34.16C132.616 34.368 132.128 34.56 131.504 34.736C130.88 34.896 130.08 34.984 129.104 35C128.16 35.016 127.368 34.888 126.728 34.616C126.088 34.344 125.56 33.992 125.144 33.56C124.728 33.112 124.408 32.648 124.184 32.168C123.976 31.672 123.824 31.216 123.728 30.8C123.648 30.368 123.608 30.032 123.608 29.792C123.608 29.552 123.624 29.24 123.656 28.856C123.704 28.472 123.808 28.072 123.968 27.656C124.144 27.224 124.408 26.816 124.76 26.432C125.112 26.048 125.592 25.736 126.2 25.496C126.824 25.256 127.616 25.128 128.576 25.112C129.776 25.096 130.712 25.2 131.384 25.424C132.056 25.648 132.544 25.92 132.848 26.24C133.152 26.56 133.336 26.864 133.4 27.152C133.48 27.44 133.52 27.64 133.52 27.752ZM127.4 29.768C128.376 29.688 129.104 29.48 129.584 29.144C130.064 28.808 130.344 28.432 130.424 28.016C130.504 27.6 130.424 27.248 130.184 26.96C129.96 26.656 129.616 26.52 129.152 26.552C128.688 26.568 128.336 26.744 128.096 27.08C127.856 27.4 127.688 27.776 127.592 28.208C127.496 28.624 127.44 28.992 127.424 29.312C127.408 29.616 127.4 29.768 127.4 29.768ZM137.299 33.392C137.299 33.376 137.235 33.28 137.107 33.104C136.995 32.912 136.859 32.6 136.699 32.168C136.539 31.72 136.387 31.104 136.243 30.32C136.099 29.52 135.987 28.512 135.907 27.296C135.875 26.656 135.963 26.2 136.171 25.928C136.395 25.656 136.675 25.488 137.011 25.424C137.347 25.344 137.667 25.304 137.971 25.304C137.971 25.304 138.059 25.304 138.235 25.304C138.427 25.288 138.643 25.304 138.883 25.352C139.123 25.384 139.331 25.488 139.507 25.664C139.699 25.824 139.803 26.08 139.819 26.432C139.835 26.72 139.851 27.112 139.867 27.608C139.883 28.104 139.907 28.64 139.939 29.216C139.987 29.776 140.059 30.32 140.155 30.848C140.251 31.376 140.371 31.816 140.515 32.168C140.675 32.504 140.875 32.688 141.115 32.72C141.355 32.752 141.515 32.616 141.595 32.312C141.675 31.992 141.699 31.592 141.667 31.112C141.651 30.632 141.603 30.152 141.523 29.672C141.459 29.176 141.395 28.76 141.331 28.424C141.267 28.088 141.235 27.92 141.235 27.92C141.235 27.92 141.203 27.824 141.139 27.632C141.075 27.424 141.051 27.192 141.067 26.936C141.083 26.68 141.195 26.448 141.403 26.24C141.611 26.032 141.979 25.92 142.507 25.904C143.227 25.872 143.763 25.944 144.115 26.12C144.483 26.296 144.731 26.52 144.859 26.792C145.003 27.064 145.091 27.344 145.123 27.632C145.155 27.792 145.211 28.176 145.291 28.784C145.387 29.376 145.491 30.08 145.603 30.896C145.715 31.696 145.803 32.528 145.867 33.392C145.931 34.24 145.955 35.016 145.939 35.72C145.923 36.424 145.827 36.96 145.651 37.328C145.379 37.92 145.003 38.464 144.523 38.96C144.059 39.472 143.435 39.864 142.651 40.136C141.883 40.424 140.899 40.536 139.699 40.472C138.803 40.424 138.083 40.28 137.539 40.04C136.995 39.816 136.587 39.568 136.315 39.296C136.043 39.04 135.859 38.808 135.763 38.6C135.683 38.408 135.643 38.312 135.643 38.312C135.643 38.312 135.611 38.224 135.547 38.048C135.499 37.872 135.491 37.664 135.523 37.424C135.571 37.2 135.723 37 135.979 36.824C136.235 36.664 136.683 36.592 137.323 36.608C137.963 36.624 138.427 36.68 138.715 36.776C139.003 36.888 139.187 37.008 139.267 37.136C139.347 37.264 139.371 37.376 139.339 37.472C139.323 37.568 139.315 37.616 139.315 37.616C139.315 37.616 139.315 37.704 139.315 37.88C139.315 38.056 139.371 38.224 139.483 38.384C139.611 38.544 139.835 38.616 140.155 38.6C140.491 38.568 140.851 38.416 141.235 38.144C141.619 37.888 141.907 37.496 142.099 36.968C142.307 36.44 142.291 35.784 142.051 35C142.051 35 141.899 35.024 141.595 35.072C141.291 35.12 140.891 35.12 140.395 35.072C139.915 35.04 139.395 34.904 138.835 34.664C138.291 34.408 137.779 33.984 137.299 33.392ZM156.323 24.896C156.323 24.896 156.219 24.896 156.011 24.896C155.803 24.88 155.555 24.832 155.267 24.752C154.995 24.656 154.747 24.488 154.523 24.248C154.299 24.008 154.179 23.648 154.163 23.168C154.147 22.688 154.219 22.336 154.379 22.112C154.539 21.872 154.739 21.712 154.979 21.632C155.219 21.536 155.451 21.488 155.675 21.488C155.899 21.472 156.059 21.456 156.155 21.44C156.251 21.424 156.411 21.44 156.635 21.488C156.859 21.52 157.091 21.608 157.331 21.752C157.571 21.88 157.771 22.08 157.931 22.352C158.091 22.608 158.155 22.952 158.123 23.384C158.091 23.8 157.979 24.12 157.787 24.344C157.611 24.552 157.403 24.696 157.163 24.776C156.939 24.84 156.739 24.88 156.563 24.896C156.403 24.896 156.323 24.896 156.323 24.896ZM155.483 33.512L154.907 28.04C154.907 28.04 154.867 27.96 154.787 27.8C154.723 27.624 154.675 27.504 154.643 27.44C154.627 27.392 154.595 27.296 154.547 27.152C154.515 26.992 154.555 26.824 154.667 26.648C154.795 26.472 155.067 26.344 155.483 26.264C155.915 26.184 156.363 26.16 156.827 26.192C157.291 26.224 157.699 26.368 158.051 26.624C158.419 26.864 158.643 27.288 158.723 27.896C158.787 28.344 158.851 28.88 158.915 29.504C158.979 30.112 159.035 30.712 159.083 31.304C159.147 31.88 159.195 32.368 159.227 32.768C159.275 33.152 159.299 33.344 159.299 33.344C159.299 33.344 159.307 33.432 159.323 33.608C159.339 33.768 159.315 33.96 159.251 34.184C159.187 34.392 159.027 34.584 158.771 34.76C158.531 34.92 158.139 35 157.595 35C157.051 35 156.635 34.928 156.347 34.784C156.059 34.624 155.851 34.448 155.723 34.256C155.611 34.064 155.539 33.896 155.507 33.752C155.491 33.592 155.483 33.512 155.483 33.512ZM166.321 31.16C165.121 31.128 164.185 31.008 163.513 30.8C162.841 30.592 162.361 30.344 162.073 30.056C161.801 29.768 161.633 29.488 161.569 29.216C161.505 28.928 161.473 28.704 161.473 28.544C161.473 28.384 161.497 28.136 161.545 27.8C161.593 27.464 161.745 27.112 162.001 26.744C162.257 26.376 162.697 26.056 163.321 25.784C163.961 25.512 164.865 25.36 166.033 25.328C167.313 25.296 168.297 25.368 168.985 25.544C169.673 25.72 170.161 25.928 170.449 26.168C170.753 26.408 170.937 26.624 171.001 26.816C171.065 26.992 171.097 27.08 171.097 27.08C171.097 27.288 171.073 27.504 171.025 27.728C170.977 27.936 170.833 28.112 170.593 28.256C170.369 28.384 169.977 28.44 169.417 28.424C168.969 28.408 168.633 28.368 168.409 28.304C168.185 28.24 168.017 28.168 167.905 28.088C167.809 27.992 167.705 27.896 167.593 27.8C167.497 27.704 167.345 27.624 167.137 27.56C166.945 27.496 166.633 27.456 166.201 27.44C165.673 27.424 165.273 27.464 165.001 27.56C164.745 27.64 164.569 27.744 164.473 27.872C164.393 28 164.345 28.112 164.329 28.208C164.329 28.288 164.329 28.328 164.329 28.328C164.329 28.328 164.345 28.392 164.377 28.52C164.425 28.648 164.585 28.776 164.857 28.904C165.145 29.032 165.657 29.104 166.393 29.12C167.785 29.168 168.849 29.304 169.585 29.528C170.337 29.736 170.865 29.984 171.169 30.272C171.489 30.56 171.673 30.848 171.721 31.136C171.785 31.408 171.817 31.624 171.817 31.784C171.817 31.944 171.761 32.192 171.649 32.528C171.553 32.864 171.337 33.216 171.001 33.584C170.665 33.952 170.145 34.272 169.441 34.544C168.753 34.816 167.825 34.968 166.657 35C165.393 35.032 164.409 34.96 163.705 34.784C163.017 34.608 162.521 34.4 162.217 34.16C161.929 33.92 161.753 33.712 161.689 33.536C161.625 33.344 161.593 33.248 161.593 33.248C161.593 33.024 161.617 32.808 161.665 32.6C161.729 32.392 161.873 32.224 162.097 32.096C162.337 31.952 162.729 31.888 163.273 31.904C163.737 31.92 164.073 31.96 164.281 32.024C164.505 32.088 164.673 32.168 164.785 32.264C164.897 32.344 165.001 32.432 165.097 32.528C165.193 32.624 165.345 32.704 165.553 32.768C165.761 32.832 166.073 32.872 166.489 32.888C167.017 32.904 167.409 32.872 167.665 32.792C167.937 32.696 168.121 32.584 168.217 32.456C168.313 32.328 168.361 32.224 168.361 32.144C168.361 32.048 168.361 32 168.361 32C168.361 32 168.345 31.936 168.313 31.808C168.281 31.664 168.121 31.528 167.833 31.4C167.561 31.256 167.057 31.176 166.321 31.16ZM182.784 35C182.784 35 182.68 35 182.472 35C182.264 35 182.024 34.968 181.752 34.904C181.496 34.84 181.264 34.712 181.056 34.52C180.848 34.328 180.728 34.048 180.696 33.68C180.68 33.376 180.648 32.944 180.6 32.384C180.552 31.824 180.496 31.216 180.432 30.56C180.384 29.888 180.336 29.256 180.288 28.664C180.24 28.056 180.2 27.56 180.168 27.176C180.136 26.792 180.12 26.6 180.12 26.6C180.12 26.6 180.128 26.536 180.144 26.408C180.16 26.264 180.216 26.104 180.312 25.928C180.424 25.752 180.608 25.592 180.864 25.448C181.136 25.304 181.512 25.224 181.992 25.208C182.472 25.192 182.848 25.24 183.12 25.352C183.392 25.464 183.584 25.6 183.696 25.76C183.824 25.904 183.896 26.04 183.912 26.168C183.944 26.28 183.96 26.336 183.96 26.336C183.96 26.336 184.104 26.264 184.392 26.12C184.696 25.96 185.08 25.8 185.544 25.64C186.024 25.48 186.528 25.384 187.056 25.352C187.136 25.352 187.288 25.352 187.512 25.352C187.752 25.352 188.008 25.408 188.28 25.52C188.568 25.616 188.848 25.808 189.12 26.096C189.408 26.384 189.648 26.808 189.84 27.368C190.032 27.912 190.144 28.632 190.176 29.528C190.224 30.648 190.256 31.568 190.272 32.288C190.304 33.008 190.28 33.568 190.2 33.968C190.136 34.352 189.976 34.624 189.72 34.784C189.48 34.928 189.096 35 188.568 35C188.056 35 187.68 34.928 187.44 34.784C187.2 34.64 187.048 34.472 186.984 34.28C186.92 34.072 186.888 33.888 186.888 33.728C186.888 33.632 186.904 33.376 186.936 32.96C186.968 32.528 186.992 32.04 187.008 31.496C187.024 30.936 187.016 30.392 186.984 29.864C186.968 29.32 186.904 28.88 186.792 28.544C186.696 28.192 186.536 28.024 186.312 28.04C186.04 28.056 185.784 28.16 185.544 28.352C185.32 28.528 185.12 28.736 184.944 28.976C184.768 29.2 184.632 29.4 184.536 29.576C184.44 29.736 184.392 29.816 184.392 29.816L184.632 33.44C184.632 33.44 184.632 33.52 184.632 33.68C184.632 33.84 184.584 34.024 184.488 34.232C184.392 34.424 184.208 34.6 183.936 34.76C183.68 34.92 183.296 35 182.784 35ZM196.937 25.256C197.529 25.208 197.985 25.272 198.305 25.448C198.625 25.624 198.817 25.728 198.881 25.76C199.041 25.84 199.185 25.928 199.313 26.024C199.457 26.12 199.529 26.168 199.529 26.168C199.529 26.168 199.649 26.208 199.889 26.288C200.129 26.368 200.409 26.56 200.729 26.864C201.049 27.152 201.345 27.608 201.617 28.232C201.889 28.856 202.049 29.704 202.097 30.776C202.129 31.496 202.017 32.104 201.761 32.6C201.505 33.08 201.161 33.48 200.729 33.8C200.313 34.104 199.857 34.344 199.361 34.52C198.881 34.68 198.417 34.792 197.969 34.856C197.537 34.92 197.177 34.96 196.889 34.976C196.617 34.992 196.481 35 196.481 35C196.481 35 196.321 35 196.001 35C195.697 35 195.313 34.952 194.849 34.856C194.385 34.744 193.921 34.536 193.457 34.232C193.009 33.912 192.633 33.448 192.329 32.84C192.041 32.232 191.913 31.424 191.945 30.416C191.977 29.408 192.161 28.584 192.497 27.944C192.849 27.288 193.265 26.776 193.745 26.408C194.241 26.04 194.729 25.776 195.209 25.616C195.705 25.456 196.113 25.36 196.433 25.328C196.769 25.28 196.937 25.256 196.937 25.256ZM197.033 27.608C197.033 27.608 196.929 27.736 196.721 27.992C196.529 28.248 196.329 28.608 196.121 29.072C195.929 29.536 195.833 30.08 195.833 30.704C195.833 31.312 195.905 31.792 196.049 32.144C196.193 32.496 196.345 32.752 196.505 32.912C196.681 33.056 196.817 33.128 196.913 33.128C197.009 33.128 197.161 33.088 197.369 33.008C197.593 32.912 197.793 32.704 197.969 32.384C198.145 32.064 198.225 31.56 198.209 30.872C198.193 30.296 198.129 29.832 198.017 29.48C197.921 29.128 197.785 28.816 197.609 28.544C197.449 28.256 197.257 27.944 197.033 27.608ZM205.117 25.52C205.661 25.472 206.085 25.496 206.389 25.592C206.709 25.672 206.941 25.784 207.085 25.928C207.245 26.072 207.341 26.208 207.373 26.336C207.421 26.448 207.445 26.504 207.445 26.504L208.669 30.968L209.269 29.216C209.269 29.216 209.317 29.12 209.413 28.928C209.525 28.736 209.725 28.544 210.013 28.352C210.301 28.16 210.717 28.072 211.261 28.088C211.821 28.088 212.229 28.176 212.485 28.352C212.757 28.528 212.933 28.704 213.013 28.88C213.109 29.056 213.157 29.144 213.157 29.144L213.781 30.92C213.781 30.92 213.821 30.776 213.901 30.488C213.997 30.184 214.117 29.808 214.261 29.36C214.405 28.896 214.549 28.432 214.693 27.968C214.837 27.504 214.957 27.096 215.053 26.744C215.165 26.376 215.237 26.144 215.269 26.048C215.317 25.888 215.405 25.728 215.533 25.568C215.661 25.408 215.885 25.28 216.205 25.184C216.541 25.072 217.029 25.04 217.669 25.088C218.149 25.12 218.501 25.2 218.725 25.328C218.949 25.456 219.093 25.6 219.157 25.76C219.221 25.92 219.245 26.056 219.229 26.168C219.213 26.28 219.205 26.336 219.205 26.336C219.205 26.336 219.141 26.504 219.013 26.84C218.901 27.176 218.749 27.608 218.557 28.136C218.365 28.664 218.157 29.232 217.933 29.84C217.725 30.448 217.517 31.032 217.309 31.592C217.117 32.152 216.949 32.632 216.805 33.032C216.661 33.416 216.573 33.648 216.541 33.728C216.477 33.888 216.373 34.072 216.229 34.28C216.101 34.472 215.901 34.64 215.629 34.784C215.373 34.928 214.997 35 214.501 35C214.021 35 213.629 34.944 213.325 34.832C213.037 34.72 212.821 34.608 212.677 34.496C212.549 34.384 212.485 34.328 212.485 34.328L211.141 32.312L210.013 34.088C210.013 34.088 209.965 34.168 209.869 34.328C209.773 34.472 209.573 34.624 209.269 34.784C208.965 34.928 208.493 35 207.853 35C207.373 35 206.997 34.928 206.725 34.784C206.453 34.64 206.245 34.48 206.101 34.304C205.973 34.128 205.885 33.968 205.837 33.824C205.805 33.68 205.789 33.608 205.789 33.608C205.789 33.608 205.733 33.432 205.621 33.08C205.509 32.728 205.357 32.28 205.165 31.736C204.989 31.192 204.797 30.624 204.589 30.032C204.397 29.424 204.205 28.856 204.013 28.328C203.837 27.8 203.693 27.384 203.581 27.08C203.437 26.712 203.413 26.424 203.509 26.216C203.621 26.008 203.781 25.856 203.989 25.76C204.197 25.664 204.413 25.608 204.637 25.592C204.861 25.56 205.021 25.536 205.117 25.52ZM27.56 67.432L26.768 57.688C26.768 57.688 26.728 57.624 26.648 57.496C26.584 57.368 26.52 57.208 26.456 57.016C26.392 56.808 26.376 56.608 26.408 56.416C26.44 56.224 26.56 56.064 26.768 55.936C26.944 55.84 27.264 55.656 27.728 55.384C28.208 55.096 28.792 54.816 29.48 54.544C30.168 54.272 30.904 54.08 31.688 53.968C32.488 53.856 33.288 53.904 34.088 54.112C34.904 54.304 35.672 54.744 36.392 55.432C37.096 56.104 37.536 56.848 37.712 57.664C37.888 58.48 37.872 59.28 37.664 60.064C37.472 60.848 37.144 61.536 36.68 62.128C36.232 62.72 35.72 63.136 35.144 63.376C34.36 63.696 33.688 63.896 33.128 63.976C32.568 64.04 32.136 64.056 31.832 64.024C31.528 64.008 31.376 64 31.376 64L31.616 67.624C31.616 67.624 31.616 67.704 31.616 67.864C31.616 68.024 31.568 68.208 31.472 68.416C31.392 68.624 31.216 68.8 30.944 68.944C30.672 69.104 30.272 69.184 29.744 69.184C29.04 69.168 28.528 69.056 28.208 68.848C27.904 68.64 27.72 68.4 27.656 68.128C27.592 67.856 27.56 67.624 27.56 67.432ZM30.632 56.608L31.16 61.816C31.16 61.816 31.296 61.816 31.568 61.816C31.84 61.816 32.144 61.768 32.48 61.672C32.832 61.576 33.136 61.392 33.392 61.12C33.648 60.848 33.76 60.44 33.728 59.896C33.696 59.176 33.616 58.536 33.488 57.976C33.36 57.4 33.168 56.96 32.912 56.656C32.656 56.352 32.304 56.24 31.856 56.32C31.408 56.4 31.096 56.464 30.92 56.512C30.76 56.544 30.672 56.568 30.656 56.584C30.64 56.6 30.632 56.608 30.632 56.608ZM39.3132 55.696C39.3132 55.696 39.3132 55.624 39.3132 55.48C39.3292 55.336 39.3852 55.176 39.4812 55C39.5772 54.808 39.7532 54.64 40.0092 54.496C40.2812 54.352 40.6652 54.28 41.1612 54.28C41.7692 54.28 42.2012 54.368 42.4572 54.544C42.7292 54.704 42.8892 54.904 42.9372 55.144C43.0012 55.368 43.0172 55.592 42.9852 55.816C42.9532 56.024 42.9372 56.168 42.9372 56.248C42.9372 56.312 42.9372 56.552 42.9372 56.968C42.9532 57.368 42.9852 57.848 43.0332 58.408C43.0812 58.968 43.1612 59.52 43.2732 60.064C43.3852 60.608 43.5452 61.064 43.7532 61.432C43.9612 61.784 44.2332 61.952 44.5692 61.936C44.9052 61.92 45.1292 61.744 45.2412 61.408C45.3532 61.072 45.3932 60.656 45.3612 60.16C45.3452 59.664 45.2892 59.168 45.1932 58.672C45.0972 58.176 45.0013 57.752 44.9052 57.4C44.8092 57.032 44.7612 56.824 44.7612 56.776C44.7612 56.712 44.7372 56.6 44.6892 56.44C44.6572 56.264 44.6572 56.072 44.6892 55.864C44.7372 55.656 44.8732 55.464 45.0972 55.288C45.3212 55.112 45.6892 55 46.2012 54.952C46.7132 54.904 47.1132 54.936 47.4012 55.048C47.7052 55.144 47.9212 55.272 48.0493 55.432C48.1933 55.592 48.2813 55.744 48.3133 55.888C48.3452 56.016 48.3612 56.08 48.3612 56.08C48.3612 56.08 48.4172 56.272 48.5292 56.656C48.6413 57.04 48.7453 57.536 48.8412 58.144C48.9373 58.736 48.9693 59.368 48.9373 60.04C48.9212 60.712 48.7772 61.352 48.5052 61.96C48.2492 62.552 47.8173 63.04 47.2093 63.424C46.6173 63.808 45.7853 64 44.7132 64C43.6412 64 42.7612 63.8 42.0732 63.4C41.3852 63 40.8412 62.488 40.4412 61.864C40.0572 61.224 39.7772 60.552 39.6012 59.848C39.4252 59.144 39.3212 58.48 39.2892 57.856C39.2572 57.216 39.2492 56.696 39.2652 56.296C39.2972 55.896 39.3132 55.696 39.3132 55.696ZM50.8887 50.176C50.8887 50.176 50.9047 50.104 50.9367 49.96C50.9847 49.816 51.0807 49.656 51.2247 49.48C51.3687 49.304 51.5927 49.152 51.8967 49.024C52.2007 48.88 52.6167 48.816 53.1447 48.832C53.6407 48.848 54.0087 48.96 54.2487 49.168C54.4887 49.376 54.6327 49.64 54.6807 49.96C54.7287 50.264 54.7127 50.576 54.6327 50.896C54.5207 51.328 54.4487 51.816 54.4167 52.36C54.3847 52.904 54.3687 53.376 54.3687 53.776C54.3847 54.16 54.3927 54.352 54.3927 54.352C55.6727 54.352 56.7047 54.512 57.4887 54.832C58.2887 55.152 58.9047 55.552 59.3367 56.032C59.7687 56.512 60.0647 56.992 60.2247 57.472C60.4007 57.952 60.5047 58.352 60.5367 58.672C60.5687 58.992 60.5847 59.152 60.5847 59.152C60.5847 59.152 60.5607 59.32 60.5127 59.656C60.4807 59.976 60.3927 60.376 60.2487 60.856C60.1047 61.336 59.8727 61.816 59.5527 62.296C59.2327 62.776 58.7927 63.184 58.2327 63.52C57.6727 63.84 56.9527 64 56.0727 64C54.9687 64 54.0567 63.752 53.3367 63.256C52.6327 62.76 52.0807 62.104 51.6807 61.288C51.2807 60.456 50.9927 59.552 50.8167 58.576C50.6407 57.584 50.5367 56.6 50.5047 55.624C50.4887 54.632 50.5127 53.728 50.5767 52.912C50.6407 52.08 50.7047 51.416 50.7687 50.92C50.8487 50.424 50.8887 50.176 50.8887 50.176ZM54.2007 56.248C54.2007 56.248 54.1927 56.432 54.1767 56.8C54.1607 57.152 54.1607 57.592 54.1767 58.12C54.2087 58.648 54.2887 59.176 54.4167 59.704C54.5447 60.232 54.7527 60.68 55.0407 61.048C55.3447 61.4 55.7527 61.568 56.2647 61.552C56.6327 61.552 56.9047 61.408 57.0807 61.12C57.2567 60.816 57.3687 60.472 57.4167 60.088C57.4807 59.704 57.5047 59.36 57.4887 59.056C57.4727 58.752 57.4647 58.576 57.4647 58.528C57.4647 58.48 57.4327 58.336 57.3687 58.096C57.3207 57.84 57.1927 57.56 56.9847 57.256C56.7927 56.936 56.4727 56.68 56.0247 56.488C55.5927 56.28 54.9847 56.2 54.2007 56.248ZM64.2284 49.552C64.2284 49.552 64.3324 49.56 64.5404 49.576C64.7484 49.576 64.9884 49.616 65.2604 49.696C65.5324 49.76 65.7724 49.88 65.9804 50.056C66.1884 50.232 66.2924 50.48 66.2924 50.8C66.2924 51.008 66.3004 51.432 66.3164 52.072C66.3324 52.712 66.3484 53.472 66.3644 54.352C66.3804 55.216 66.3964 56.112 66.4124 57.04C66.4444 57.952 66.4684 58.808 66.4844 59.608C66.5004 60.408 66.5084 61.056 66.5084 61.552C66.5244 62.048 66.5324 62.296 66.5324 62.296C66.5324 62.296 66.5324 62.384 66.5324 62.56C66.5324 62.72 66.4844 62.92 66.3884 63.16C66.2924 63.384 66.1084 63.584 65.8364 63.76C65.5644 63.92 65.1644 64 64.6364 64C63.9324 64 63.4204 63.912 63.1004 63.736C62.7804 63.544 62.5804 63.336 62.5004 63.112C62.4364 62.872 62.4124 62.688 62.4284 62.56C62.4444 62.496 62.4524 62.216 62.4524 61.72C62.4524 61.224 62.4444 60.6 62.4284 59.848C62.4284 59.096 62.4204 58.288 62.4044 57.424C62.3884 56.56 62.3724 55.712 62.3564 54.88C62.3404 54.032 62.3164 53.28 62.2844 52.624C62.2684 51.952 62.2524 51.456 62.2364 51.136C62.2044 50.688 62.3084 50.352 62.5484 50.128C62.8044 49.904 63.0924 49.76 63.4124 49.696C63.7484 49.616 64.0204 49.568 64.2284 49.552ZM70.358 53.896C70.358 53.896 70.254 53.896 70.046 53.896C69.838 53.88 69.59 53.832 69.302 53.752C69.03 53.656 68.782 53.488 68.558 53.248C68.334 53.008 68.214 52.648 68.198 52.168C68.182 51.688 68.254 51.336 68.414 51.112C68.574 50.872 68.774 50.712 69.014 50.632C69.254 50.536 69.486 50.488 69.71 50.488C69.934 50.472 70.094 50.456 70.19 50.44C70.286 50.424 70.446 50.44 70.67 50.488C70.894 50.52 71.126 50.608 71.366 50.752C71.606 50.88 71.806 51.08 71.966 51.352C72.126 51.608 72.19 51.952 72.158 52.384C72.126 52.8 72.014 53.12 71.822 53.344C71.646 53.552 71.438 53.696 71.198 53.776C70.974 53.84 70.774 53.88 70.598 53.896C70.438 53.896 70.358 53.896 70.358 53.896ZM69.518 62.512L68.942 57.04C68.942 57.04 68.902 56.96 68.822 56.8C68.758 56.624 68.71 56.504 68.678 56.44C68.662 56.392 68.63 56.296 68.582 56.152C68.55 55.992 68.59 55.824 68.702 55.648C68.83 55.472 69.102 55.344 69.518 55.264C69.95 55.184 70.398 55.16 70.862 55.192C71.326 55.224 71.734 55.368 72.086 55.624C72.454 55.864 72.678 56.288 72.758 56.896C72.822 57.344 72.886 57.88 72.95 58.504C73.014 59.112 73.07 59.712 73.118 60.304C73.182 60.88 73.23 61.368 73.262 61.768C73.31 62.152 73.334 62.344 73.334 62.344C73.334 62.344 73.342 62.432 73.358 62.608C73.374 62.768 73.35 62.96 73.286 63.184C73.222 63.392 73.062 63.584 72.806 63.76C72.566 63.92 72.174 64 71.63 64C71.086 64 70.67 63.928 70.382 63.784C70.094 63.624 69.886 63.448 69.758 63.256C69.646 63.064 69.574 62.896 69.542 62.752C69.526 62.592 69.518 62.512 69.518 62.512ZM80.3559 60.16C79.1559 60.128 78.2199 60.008 77.5479 59.8C76.8759 59.592 76.3959 59.344 76.1079 59.056C75.8359 58.768 75.6679 58.488 75.6039 58.216C75.5399 57.928 75.5079 57.704 75.5079 57.544C75.5079 57.384 75.5319 57.136 75.5799 56.8C75.6279 56.464 75.7799 56.112 76.0359 55.744C76.2919 55.376 76.7319 55.056 77.3559 54.784C77.9959 54.512 78.8999 54.36 80.0679 54.328C81.3479 54.296 82.3319 54.368 83.0199 54.544C83.7079 54.72 84.1959 54.928 84.4839 55.168C84.7879 55.408 84.9719 55.624 85.0359 55.816C85.0999 55.992 85.1319 56.08 85.1319 56.08C85.1319 56.288 85.1079 56.504 85.0599 56.728C85.0119 56.936 84.8679 57.112 84.6279 57.256C84.4039 57.384 84.0119 57.44 83.4519 57.424C83.0039 57.408 82.6679 57.368 82.4439 57.304C82.2199 57.24 82.0519 57.168 81.9399 57.088C81.8439 56.992 81.7399 56.896 81.6279 56.8C81.5319 56.704 81.3799 56.624 81.1719 56.56C80.9799 56.496 80.6679 56.456 80.2359 56.44C79.7079 56.424 79.3079 56.464 79.0359 56.56C78.7799 56.64 78.6039 56.744 78.5079 56.872C78.4279 57 78.3799 57.112 78.3639 57.208C78.3639 57.288 78.3639 57.328 78.3639 57.328C78.3639 57.328 78.3799 57.392 78.4119 57.52C78.4599 57.648 78.6199 57.776 78.8919 57.904C79.1799 58.032 79.6919 58.104 80.4279 58.12C81.8199 58.168 82.8839 58.304 83.6199 58.528C84.3719 58.736 84.8999 58.984 85.2039 59.272C85.5239 59.56 85.7079 59.848 85.7559 60.136C85.8199 60.408 85.8519 60.624 85.8519 60.784C85.8519 60.944 85.7959 61.192 85.6839 61.528C85.5879 61.864 85.3719 62.216 85.0359 62.584C84.6999 62.952 84.1799 63.272 83.4759 63.544C82.7879 63.816 81.8599 63.968 80.6919 64C79.4279 64.032 78.4439 63.96 77.7399 63.784C77.0519 63.608 76.5559 63.4 76.2519 63.16C75.9639 62.92 75.7879 62.712 75.7239 62.536C75.6599 62.344 75.6279 62.248 75.6279 62.248C75.6279 62.024 75.6519 61.808 75.6999 61.6C75.7639 61.392 75.9079 61.224 76.1319 61.096C76.3719 60.952 76.7639 60.888 77.3079 60.904C77.7719 60.92 78.1079 60.96 78.3159 61.024C78.5399 61.088 78.7079 61.168 78.8199 61.264C78.9319 61.344 79.0359 61.432 79.1319 61.528C79.2279 61.624 79.3799 61.704 79.5879 61.768C79.7959 61.832 80.1079 61.872 80.5239 61.888C81.0519 61.904 81.4439 61.872 81.6999 61.792C81.9719 61.696 82.1559 61.584 82.2519 61.456C82.3479 61.328 82.3959 61.224 82.3959 61.144C82.3959 61.048 82.3959 61 82.3959 61C82.3959 61 82.3799 60.936 82.3479 60.808C82.3159 60.664 82.1559 60.528 81.8679 60.4C81.5959 60.256 81.0919 60.176 80.3559 60.16ZM87.6569 61.936L87.3689 50.08C87.3689 50.08 87.3689 50.016 87.3689 49.888C87.3849 49.76 87.4409 49.608 87.5369 49.432C87.6329 49.256 87.8009 49.104 88.0409 48.976C88.2969 48.848 88.6649 48.784 89.1449 48.784C89.7849 48.784 90.2569 48.856 90.5609 49C90.8809 49.144 91.0889 49.328 91.1849 49.552C91.2809 49.776 91.3209 50 91.3049 50.224C91.2889 50.384 91.2809 50.688 91.2809 51.136C91.2969 51.568 91.3049 52.032 91.3049 52.528C91.3209 53.008 91.3289 53.424 91.3289 53.776C91.3449 54.128 91.3529 54.304 91.3529 54.304C91.3529 54.304 91.5129 54.264 91.8329 54.184C92.1689 54.104 92.6009 54.048 93.1289 54.016C93.6569 53.984 94.2169 54.048 94.8089 54.208C95.4009 54.352 95.9609 54.656 96.4889 55.12C96.6809 55.28 96.8329 55.576 96.9449 56.008C97.0729 56.44 97.1689 56.944 97.2329 57.52C97.3129 58.08 97.3689 58.664 97.4009 59.272C97.4329 59.864 97.4489 60.416 97.4489 60.928C97.4649 61.44 97.4649 61.856 97.4489 62.176C97.4489 62.496 97.4489 62.656 97.4489 62.656C97.4489 62.656 97.4489 62.728 97.4489 62.872C97.4489 63 97.4089 63.152 97.3289 63.328C97.2649 63.504 97.1209 63.664 96.8969 63.808C96.6729 63.936 96.3289 64 95.8649 64C95.2569 64 94.8409 63.928 94.6169 63.784C94.3929 63.64 94.2729 63.448 94.2569 63.208C94.2409 62.952 94.2329 62.672 94.2329 62.368C94.2329 62.192 94.2249 61.904 94.2089 61.504C94.1929 61.104 94.1769 60.664 94.1609 60.184C94.1449 59.688 94.1289 59.216 94.1129 58.768C94.0969 58.32 94.0809 57.952 94.0649 57.664C94.0489 57.376 94.0409 57.232 94.0409 57.232C94.0409 57.232 94.0249 57.136 93.9929 56.944C93.9769 56.736 93.8969 56.536 93.7529 56.344C93.6089 56.152 93.3689 56.064 93.0329 56.08C92.7769 56.096 92.5609 56.216 92.3849 56.44C92.2089 56.648 92.0649 56.912 91.9529 57.232C91.8569 57.536 91.7849 57.832 91.7369 58.12C91.6889 58.392 91.6649 58.592 91.6649 58.72C91.6649 58.848 91.6649 59.104 91.6649 59.488C91.6809 59.872 91.6889 60.288 91.6889 60.736C91.6889 61.168 91.6889 61.544 91.6889 61.864C91.7049 62.168 91.7129 62.32 91.7129 62.32C91.7129 62.32 91.7049 62.408 91.6889 62.584C91.6729 62.744 91.6089 62.936 91.4969 63.16C91.3849 63.384 91.1849 63.584 90.8969 63.76C90.6249 63.92 90.2249 64 89.6969 64C89.0889 64 88.6329 63.896 88.3289 63.688C88.0409 63.48 87.8489 63.24 87.7529 62.968C87.6729 62.696 87.6329 62.456 87.6329 62.248C87.6489 62.04 87.6569 61.936 87.6569 61.936ZM108.958 56.752C108.91 57.552 108.686 58.2 108.286 58.696C107.886 59.176 107.398 59.544 106.822 59.8C106.262 60.04 105.702 60.208 105.142 60.304C104.582 60.384 104.11 60.424 103.726 60.424C103.358 60.424 103.174 60.424 103.174 60.424C103.27 60.984 103.406 61.384 103.582 61.624C103.758 61.864 103.95 62 104.158 62.032C104.382 62.064 104.59 62.048 104.782 61.984C104.974 61.904 105.126 61.816 105.238 61.72C105.366 61.624 105.43 61.576 105.43 61.576C105.43 61.576 105.518 61.504 105.694 61.36C105.87 61.216 106.142 61.08 106.51 60.952C106.894 60.808 107.374 60.736 107.95 60.736C108.606 60.736 109.046 60.824 109.27 61C109.51 61.16 109.622 61.352 109.606 61.576C109.606 61.784 109.558 61.976 109.462 62.152C109.382 62.312 109.342 62.392 109.342 62.392C109.342 62.392 109.27 62.472 109.126 62.632C108.998 62.776 108.758 62.952 108.406 63.16C108.054 63.368 107.566 63.56 106.942 63.736C106.318 63.896 105.518 63.984 104.542 64C103.598 64.016 102.806 63.888 102.166 63.616C101.526 63.344 100.998 62.992 100.582 62.56C100.166 62.112 99.8464 61.648 99.6224 61.168C99.4144 60.672 99.2624 60.216 99.1664 59.8C99.0864 59.368 99.0464 59.032 99.0464 58.792C99.0464 58.552 99.0624 58.24 99.0944 57.856C99.1424 57.472 99.2464 57.072 99.4064 56.656C99.5824 56.224 99.8464 55.816 100.198 55.432C100.55 55.048 101.03 54.736 101.638 54.496C102.262 54.256 103.054 54.128 104.014 54.112C105.214 54.096 106.15 54.2 106.822 54.424C107.494 54.648 107.982 54.92 108.286 55.24C108.59 55.56 108.774 55.864 108.838 56.152C108.918 56.44 108.958 56.64 108.958 56.752ZM102.838 58.768C103.814 58.688 104.542 58.48 105.022 58.144C105.502 57.808 105.782 57.432 105.862 57.016C105.942 56.6 105.862 56.248 105.622 55.96C105.398 55.656 105.054 55.52 104.59 55.552C104.126 55.568 103.774 55.744 103.534 56.08C103.294 56.4 103.126 56.776 103.03 57.208C102.934 57.624 102.878 57.992 102.862 58.312C102.846 58.616 102.838 58.768 102.838 58.768ZM119.337 48.352C119.337 48.352 119.433 48.368 119.625 48.4C119.833 48.416 120.065 48.464 120.321 48.544C120.577 48.608 120.809 48.72 121.017 48.88C121.241 49.024 121.361 49.232 121.377 49.504C121.393 49.68 121.417 50.064 121.449 50.656C121.481 51.232 121.513 51.92 121.545 52.72C121.593 53.52 121.633 54.352 121.665 55.216C121.713 56.064 121.753 56.864 121.785 57.616C121.817 58.352 121.841 58.952 121.857 59.416C121.889 59.88 121.905 60.112 121.905 60.112C121.905 60.112 121.897 60.208 121.881 60.4C121.881 60.592 121.833 60.832 121.737 61.12C121.657 61.408 121.505 61.688 121.281 61.96C120.801 62.552 120.193 63.04 119.457 63.424C118.721 63.808 117.713 64 116.433 64C115.585 64 114.769 63.84 113.985 63.52C113.217 63.2 112.585 62.696 112.089 62.008C111.609 61.304 111.377 60.392 111.393 59.272C111.409 58.424 111.593 57.68 111.945 57.04C112.313 56.4 112.793 55.872 113.385 55.456C113.977 55.024 114.633 54.704 115.353 54.496C116.089 54.288 116.825 54.184 117.561 54.184L117.393 50.032C117.393 50.032 117.377 49.96 117.345 49.816C117.313 49.656 117.329 49.472 117.393 49.264C117.473 49.056 117.657 48.864 117.945 48.688C118.233 48.512 118.697 48.4 119.337 48.352ZM117.633 56.272C117.265 56.24 116.913 56.376 116.577 56.68C116.241 56.984 115.961 57.376 115.737 57.856C115.529 58.32 115.425 58.784 115.425 59.248C115.425 59.936 115.537 60.528 115.761 61.024C116.001 61.52 116.313 61.768 116.697 61.768C116.953 61.768 117.169 61.664 117.345 61.456C117.521 61.248 117.657 61.04 117.753 60.832C117.849 60.608 117.897 60.496 117.897 60.496L117.633 56.272Z" fill="#35273A"/>
<mask id="mask0_31_864" style="mask-type:alpha" maskUnits="userSpaceOnUse" x="309" y="19" width="24" height="24">
<rect x="309" y="19" width="24" height="24" fill="#713A82"/>
</mask>
<g mask="url(#mask0_31_864)">
<path d="M321 32.3998L316.1 37.2998C315.916 37.4831 315.683 37.5748 315.4 37.5748C315.116 37.5748 314.883 37.4831 314.7 37.2998C314.516 37.1165 314.425 36.8831 314.425 36.5998C314.425 36.3165 314.516 36.0831 314.7 35.8998L319.6 30.9998L314.7 26.0998C314.516 25.9165 314.425 25.6831 314.425 25.3998C314.425 25.1165 314.516 24.8831 314.7 24.6998C314.883 24.5165 315.116 24.4248 315.4 24.4248C315.683 24.4248 315.916 24.5165 316.1 24.6998L321 29.5998L325.9 24.6998C326.083 24.5165 326.316 24.4248 326.6 24.4248C326.883 24.4248 327.116 24.5165 327.3 24.6998C327.483 24.8831 327.575 25.1165 327.575 25.3998C327.575 25.6831 327.483 25.9165 327.3 26.0998L322.4 30.9998L327.3 35.8998C327.483 36.0831 327.575 36.3165 327.575 36.5998C327.575 36.8831 327.483 37.1165 327.3 37.2998C327.116 37.4831 326.883 37.5748 326.6 37.5748C326.316 37.5748 326.083 37.4831 325.9 37.2998L321 32.3998Z" fill="#35273A"/>
</g>
</svg>
